<svg xmlns="http://www.w3.org/2000/svg" viewBox="0 0 111.27 30.75"><defs><style>.cls-1{fill:#1a1a1a;}</style></defs><g id="Capa_2" data-name="Capa 2"><g id="Capa_1-2" data-name="Capa 1"><path class="cls-1" d="M19.14.55,18.1,21H14L12.91.55H0L4.51,30.2H26.76L31.18.55Z"/><path class="cls-1" d="M60,15.07s1.26-7.67-2.83-12C55.22,1,51.47,0,46.11,0s-9.2,1.27-11.45,3.76S31.2,10.23,31.2,15.43s1.18,9.09,3.5,11.6,6.2,3.72,11.63,3.72a44.39,44.39,0,0,0,7.82-.63,24.7,24.7,0,0,0,4.28-1l.55-.24V20.33c-9,2-15,0-15,0l0-7.31a3,3,0,0,1,.8-2.1A2.79,2.79,0,0,1,46.85,10a3,3,0,0,1,2.11.82A2.92,2.92,0,0,1,49.88,13v3.49Z"/><path class="cls-1" d="M74.66,7,73.78.55H62.62V30.2H76.18V14.3l7.85.76V.6C77.86,1.11,74.66,7,74.66,7Z"/><path class="cls-1" d="M111.27.55H86.06V9.07l12,1.12-12,10.27V30.2h25.21V22.12L99,21l12.31-10.28Z"/></g></g></svg>